#N canvas 0 28 1440 900 12;
#X floatatom 545 72 4 0 0 0 - - - 0;
#X obj 545 41 ctlin 22 1;
#X obj 89 94 / 127;
#X floatatom 91 126 5 0 0 0 - - - 0;
#X obj 761 836 dac~;
#X obj 89 64 notein 1;
#X obj 927 42 adc~;
#X obj 240 65 notein 2;
#X obj 242 98 / 127;
#X floatatom 243 155 5 0 0 0 - - - 0;
#X text 605 72 Value;
#X text 87 37 Button A;
#X text 237 37 Button B;
#X obj 710 685 clip~ -0.5 0.5;
#X obj 244 125 * 2;
#X obj 167 234 bng 15 250 50 0 empty empty empty 17 7 0 10 #fcfcfc #000000 #000000;
#X obj 207 234 bng 15 250 50 0 empty empty empty 17 7 0 10 #fcfcfc #000000 #000000;
#X obj 247 234 bng 15 250 50 0 empty empty empty 17 7 0 10 #fcfcfc #000000 #000000;
#X obj 167 194 select 1 2;
#X msg 37 544 0;
#X msg 37 574 1;
#X msg 677 500 0;
#X obj 79 556 *~;
#X msg 677 530 1;
#X obj 727 520 *~;
#X obj 710 656 *~;
#X text 1215 90 Button C;
#X obj 1218 120 notein 3;
#X msg 1344 468 1;
#X msg 1344 428 0;
#X obj 1076 646 *~;
#X obj 1218 153 tgl 15 0 empty empty empty 17 7 0 10 #fcfcfc #000000 #000000 0 1;
#X obj 1218 184 select 0 1;
#X obj 1192 250 bng 50 250 50 0 empty empty empty 17 7 0 10 #ffffff #ff2600 #ff2600;
#X obj 1332 250 bng 49 250 50 0 empty empty empty 17 7 0 10 #fcfcfc #00f900 #00f900;
#X msg 1185 388 1;
#X msg 1185 348 0;
#X obj 994 95 *~;
#X text 1251 249 Off;
#X text 1392 250 On;
#X obj 711 717 *~ 0.25;
#X obj 141 824 vcf~;
#X obj 61 651 vsl 19 162 0 127 0 0 empty empty empty 0 -9 0 12 #fcfcfc #000000 #000000 0 1;
#X obj 137 787 +~ 200;
#X obj 137 746 *~ 1500;
#X obj 186 606 hsl 162 19 0 127 0 0 empty empty empty -2 -10 0 12 #fcfcfc #000000 #000000 0 1;
#X obj 242 728 bang;
#X obj 245 759 -;
#X floatatom 245 787 5 0 0 0 - - - 0;
#X obj 302 769 hsl 162 19 0 1000 0 0 empty empty empty -2 -10 0 12 #fcfcfc #000000 #000000 0 1;
#X floatatom 299 793 5 0 0 0 - - - 0;
#X obj 301 727 hsl 162 19 0 10000 0 0 empty empty empty -2 -10 0 12 #fcfcfc #000000 #000000 0 1;
#X obj 179 677 pack 0 5;
#X obj 178 715 line~;
#X obj 179 638 / 127;
#X text 469 728 <-- Max Freq;
#X text 470 771 <-- Min Freq;
#X text 354 604 <-- LFO;
#X text 33 628 Q factor;
#X floatatom 253 638 5 0 0 0 - - - 0;
#X text 113 557 On/off selection for Effect 1;
#X text 758 519 On/off selection for Effect 2;
#X obj 34 8 bng 19 250 50 0 empty empty empty 0 -10 0 12 #fcfcfc #000000 #000000;
#X obj 37 274 bng 19 250 50 0 empty empty empty 0 -10 0 12 #fcfcfc #000000 #000000;
#X obj 321 11 bng 19 250 50 0 empty empty empty 0 -10 0 12 #fcfcfc #000000 #000000;
#X obj 320 294 bng 19 250 50 0 empty empty empty 0 -10 0 12 #fcfcfc #000000 #000000;
#X obj 507 9 bng 19 250 50 0 empty empty empty 0 -10 0 12 #fcfcfc #000000 #000000;
#X obj 510 218 bng 19 250 50 0 empty empty empty 0 -10 0 12 #fcfcfc #000000 #000000;
#X obj 727 9 bng 19 250 50 0 empty empty empty 0 -10 0 12 #fcfcfc #000000 #000000;
#X obj 727 237 bng 19 250 50 0 empty empty empty 0 -10 0 12 #fcfcfc #000000 #000000;
#X obj 888 6 bng 19 250 50 0 empty empty empty 0 -10 0 12 #fcfcfc #000000 #000000;
#X obj 891 165 bng 19 250 50 0 empty empty empty 0 -10 0 12 #fcfcfc #000000 #000000;
#X obj 1108 7 bng 19 250 50 0 empty empty empty 0 -10 0 12 #fcfcfc #000000 #000000;
#X obj 1108 185 bng 19 250 50 0 empty empty empty 0 -10 0 12 #fcfcfc #000000 #000000;
#X obj 1163 8 bng 19 250 50 0 empty empty empty 0 -10 0 12 #fcfcfc #000000 #000000;
#X obj 1162 510 bng 19 250 50 0 empty empty empty 0 -10 0 12 #fcfcfc #000000 #000000;
#X obj 1412 12 bng 19 250 50 0 empty empty empty 0 -10 0 12 #fcfcfc #000000 #000000;
#X obj 1412 526 bng 19 250 50 0 empty empty empty 0 -10 0 12 #fcfcfc #000000 #000000;
#X text 124 9 EFFECT BUTTON SELECT;
#X text 540 9 INPUT FROM ACCELEROMETER;
#X text 937 9 INPUT FROM GUITAR;
#X text 821 484 EFFECT 2;
#X text 279 540 EFFECT 1;
#X obj 28 517 bng 19 250 50 0 empty empty empty 0 -10 0 12 #fcfcfc #000000 #000000;
#X obj 29 833 bng 19 250 50 0 empty empty empty 0 -10 0 12 #fcfcfc #000000 #000000;
#X obj 566 534 bng 19 250 50 0 empty empty empty 0 -10 0 12 #fcfcfc #000000 #000000;
#X obj 566 853 bng 19 250 50 0 empty empty empty 0 -10 0 12 #fcfcfc #000000 #000000;
#X obj 668 462 bng 19 250 50 0 empty empty empty 0 -10 0 12 #fcfcfc #000000 #000000;
#X obj 669 738 bng 19 250 50 0 empty empty empty 0 -10 0 12 #fcfcfc #000000 #000000;
#X obj 995 481 bng 19 250 50 0 empty empty empty 0 -10 0 12 #fcfcfc #000000 #000000;
#X obj 993 754 bng 19 250 50 0 empty empty empty 0 -10 0 12 #fcfcfc #000000 #000000;
#X text 823 678 Creating distortion;
#X obj 728 794 bng 19 250 50 0 empty empty empty 0 -10 0 12 #fcfcfc #000000 #000000;
#X obj 729 847 bng 19 250 50 0 empty empty empty 0 -10 0 12 #fcfcfc #000000 #000000;
#X obj 886 812 bng 19 250 50 0 empty empty empty 0 -10 0 12 #fcfcfc #000000 #000000;
#X obj 887 865 bng 19 250 50 0 empty empty empty 0 -10 0 12 #fcfcfc #000000 #000000;
#X text 828 815 OUTPUT;
#X text 1184 11 ON/OFF BYPASS EFFECTS SELECTION;
#X obj 580 146 -;
#X msg 633 120 123;
#X floatatom 738 603 5 0 0 0 - - - 0;
#X obj 72 583 *~ 10;
#X obj 72 609 clip~ -0.8 0.8;
#X text 531 120 Calibration;
#X text 417 556 Calibration;
#X text 790 560 Calibration;
#X obj 579 184 * -1;
#X floatatom 647 214 5 0 0 0 - - - 0;
#X obj 787 617 select 0;
#X floatatom 880 643 5 0 0 0 - - - 0;
#X msg 99 688 15;
#X obj 380 555 + 80;
#X text 59 192 Selection for Button A/B;
#X obj 751 560 + 60;
#X msg 297 698 2500;
#X obj 297 672 bng 19 250 50 0 empty empty empty 0 -10 0 12 #fcfcfc #000000 #000000;
#X obj 98 653 bng 19 250 50 0 empty empty empty 0 -10 0 12 #fcfcfc #000000 #000000;
#X floatatom 61 829 5 0 0 0 - - - 0;
#X floatatom 298 749 5 0 0 0 - - - 0;
#X obj 390 792 bng 19 250 50 0 empty empty empty 0 -10 0 12 #fcfcfc #000000 #000000;
#X msg 350 793 250;
#X connect 0 0 98 0;
#X connect 1 0 0 0;
#X connect 2 0 3 0;
#X connect 3 0 18 0;
#X connect 5 1 2 0;
#X connect 6 0 30 1;
#X connect 6 0 37 1;
#X connect 6 1 30 1;
#X connect 6 1 37 1;
#X connect 7 1 8 0;
#X connect 8 0 14 0;
#X connect 9 0 18 0;
#X connect 13 0 40 0;
#X connect 14 0 9 0;
#X connect 15 0 20 0;
#X connect 15 0 21 0;
#X connect 16 0 23 0;
#X connect 16 0 19 0;
#X connect 18 0 15 0;
#X connect 18 1 16 0;
#X connect 18 2 17 0;
#X connect 19 0 22 0;
#X connect 20 0 22 0;
#X connect 21 0 24 0;
#X connect 22 0 101 0;
#X connect 23 0 24 0;
#X connect 24 0 25 0;
#X connect 25 0 13 0;
#X connect 27 0 31 0;
#X connect 28 0 30 0;
#X connect 29 0 30 0;
#X connect 30 0 4 0;
#X connect 30 0 4 1;
#X connect 31 0 32 0;
#X connect 32 0 33 0;
#X connect 32 1 34 0;
#X connect 33 0 36 0;
#X connect 33 0 28 0;
#X connect 34 0 35 0;
#X connect 34 0 29 0;
#X connect 35 0 37 0;
#X connect 36 0 37 0;
#X connect 37 0 24 1;
#X connect 37 0 22 1;
#X connect 40 0 4 0;
#X connect 40 0 4 1;
#X connect 41 0 4 0;
#X connect 41 1 4 1;
#X connect 42 0 41 2;
#X connect 42 0 117 0;
#X connect 43 0 41 1;
#X connect 44 0 43 0;
#X connect 45 0 54 0;
#X connect 45 0 59 0;
#X connect 47 0 48 0;
#X connect 47 0 44 1;
#X connect 49 0 43 1;
#X connect 49 0 50 0;
#X connect 49 0 47 1;
#X connect 49 0 46 0;
#X connect 51 0 47 0;
#X connect 51 0 118 0;
#X connect 52 0 53 0;
#X connect 53 0 44 0;
#X connect 54 0 52 0;
#X connect 62 0 63 0;
#X connect 63 0 65 0;
#X connect 64 0 65 0;
#X connect 66 0 67 0;
#X connect 67 0 69 0;
#X connect 68 0 69 0;
#X connect 70 0 71 0;
#X connect 71 0 73 0;
#X connect 72 0 73 0;
#X connect 74 0 75 0;
#X connect 75 0 77 0;
#X connect 76 0 77 0;
#X connect 83 0 84 0;
#X connect 83 0 85 0;
#X connect 84 0 86 0;
#X connect 85 0 86 0;
#X connect 87 0 88 0;
#X connect 87 0 89 0;
#X connect 88 0 90 0;
#X connect 89 0 90 0;
#X connect 92 0 93 0;
#X connect 92 0 94 0;
#X connect 93 0 95 0;
#X connect 94 0 95 0;
#X connect 98 0 106 0;
#X connect 99 0 98 1;
#X connect 101 0 102 0;
#X connect 102 0 41 0;
#X connect 106 0 107 0;
#X connect 106 0 111 0;
#X connect 106 0 113 0;
#X connect 108 1 109 0;
#X connect 108 1 25 1;
#X connect 110 0 42 0;
#X connect 111 0 45 0;
#X connect 113 0 100 0;
#X connect 113 0 108 0;
#X connect 114 0 51 0;
#X connect 115 0 114 0;
#X connect 119 0 120 0;
#X connect 120 0 49 0;
